mtllib simple_scene.mtl
o Default
v -4.5 0 -9.367506770274758e-16
v -4.5 2 -9.367506770274758e-16
v -2.5 2 -9.367506770274758e-16
v -2.5 0 -9.367506770274758e-16
v -4.5 1.9998489131671073 -0.0001500099992507442
v -4.5 2.0000489131661072 -2.000149999999251
v -3.5 2.0000489131661072 -2.000149999999251
v -3.5 1.9998489131671073 -0.0001500099992507442
v -4.5 0 -2.000000000000001
v -4.5 2 -2.000000000000001
v -4.5 2 -8.881784197001252e-16
v -4.5 0 -8.881784197001252e-16
v -2.5 0 -2.000000000000001
v -2.5 2 -2.000000000000001
v -4.5 2 -2.000000000000001
v -4.5 0 -2.000000000000001
v -4.5 0.0000699810277720788 -1.9999500000002508
v -4.5 0.00026998102677196786 0.00004998999974925589
v -2.5 0.00026998102677196786 0.00004998999974925589
v -2.5 0.0000699810277720788 -1.9999500000002508
v -2.5 0 -8.881784197001252e-16
v -3.5 1.9998489131671073 -0.00015000999925085523
v -3.5 2.0000489131661072 -2.000149999999251
v -2.5000000000000004 0 -2.000000000000001
v -2.5000000000000004 -0.00017180501814597048 -0.0001500099992507442
v -2.5000000000000004 0.00002819498085391859 -2.000149999999251
v 1.4999999999999996 0.00002819498085391859 -2.000149999999251
v 1.4999999999999996 -0.00017180501814597048 -0.0001500099992507442
v 1.4999999999999996 0 0
v 1.4999999999999996 2 0
v 2.4999999999999996 2 0
v 2.4999999999999996 0 0
v 2.4999999999999996 1 0
v 2.4999999999999996 2 0
v 5.5 2 0
v 5.5 1 0
v 1.4999999999999991 0 -2.000000000000001
v 1.4999999999999991 2 -2.000000000000001
v 1.4999999999999996 2 -8.881784197001252e-16
v 1.4999999999999996 0 -8.881784197001252e-16
v 1.4999999999999996 2.0000281474534174 0.00004999999974908409
v 1.4999999999999996 2.0002281474524173 -1.999949990000251
v 2.4999999999999996 2.0002281474524173 -1.999949990000251
v 2.4999999999999996 2.0000281474534174 0.00004999999974908409
v 2.4999999999999996 2.0000281474534174 0.00004999999974908409
v 2.4999999999999996 2.0002281474524173 -1.999949990000251
v 5.5 2.0002067259597824 -1.999949990000251
v 5.5 2.0000067259607825 0.00004999999974908409
v 1.4999999999999996 2 -1.0000000000000009
v 1.4999999999999996 4 -1.0000000000000009
v 2.4999999999999996 4 -1.0000000000000009
v 2.4999999999999996 2 -1.0000000000000009
v -4.5 2 -1.0000000000000009
v -4.5 4 -1.0000000000000009
v -3.5 4 -1.0000000000000009
v -3.5 2 -1.0000000000000009
v -2.5000000000000004 -2 -8.881784197001252e-16
v -2.5 0 -9.367506770274758e-16
v 2.4999999999999996 0 0
v 2.4999999999999996 -2 -8.881784197001252e-16
v -4.5 -2 0
v -4.5 0 -9.367506770274758e-16
v -2.5 0 -9.367506770274758e-16
v -2.5000000000000004 -2 -8.881784197001252e-16
v 2.4999999999999996 -2 -6.661338147750939e-16
v 2.4999999999999996 0 -6.661338147750939e-16
v 2.5 0 -2.000000000000001
v 2.5 -2 -2.000000000000001
v 2.4999999999999996 0 -6.661338147750939e-16
v 2.5000000000000004 1 -6.661338147750939e-16
v 2.5000000000000004 1 -1.0000000000000007
v 2.5000000000000004 0 -1.0000000000000007
v 2.5000000000000004 0 -1.0000000000000007
v 2.5000000000000004 1 -1.0000000000000007
v 2.5 1 -2.0000000000000004
v 2.5 0 -2.000000000000001
v 2.4999999999999996 0.9998478338289499 -2.000149989999251
v 2.4999999999999996 1.0000478338279497 -0.00014999999925113805
v 5.5 1.0000478338279497 -0.00014999999925113805
v 5.5 0.9998478338289499 -2.000149989999251
v -4.5 -2 -2.000000000000001
v -4.5 0 -2.000000000000001
v -4.5 0 -8.881784197001252e-16
v -4.5 -2 -8.881784197001252e-16
v 15.5 -12 -8.881784197001252e-16
v 15.5 -11 -8.881784197001252e-16
v 16.5 -11 -8.881784197001252e-16
v 16.5 -12 -8.881784197001252e-16
v 14.5 -11 0
v 14.5 -10 0
v 15.5 -10 0
v 15.5 -11 -8.881784197001252e-16
v 13.5 -11 0
v 13.5 -10 0
v 14.5 -10 0
v 14.5 -11 0
v 12.5 -11 -8.881784197001252e-16
v 12.5 -10 -8.881784197001252e-16
v 13.5 -10 0
v 13.5 -11 0
v 12.5 -10 -8.881784197001252e-16
v 12.5 -9 -8.881784197001252e-16
v 13.5 -9 -8.881784197001252e-16
v 13.5 -10 0
v 11.5 -10 -8.881784197001252e-16
v 11.5 -9 -8.881784197001252e-16
v 12.5 -9 -8.881784197001252e-16
v 12.5 -10 -8.881784197001252e-16
v -2.5 -3 -8.881784197001252e-16
v -2.5000000000000004 -2 -8.881784197001252e-16
v -1.5 -2 -8.881784197001252e-16
v -1.5 -3 -8.881784197001252e-16
v -1.5 -3 -8.881784197001252e-16
v -1.5 -2 -8.881784197001252e-16
v -0.5 -2 0
v -0.5 -3 0
v -1.5 -4 -8.881784197001252e-16
v -1.5 -3 -8.881784197001252e-16
v -0.5 -3 0
v -0.5 -4 -8.881784197001252e-16
v -2.5 -4 -8.881784197001252e-16
v -2.5 -3 -8.881784197001252e-16
v -1.5 -3 -8.881784197001252e-16
v -1.5 -4 -8.881784197001252e-16
v -2.5 -5 -8.881784197001252e-16
v -2.5 -4 -8.881784197001252e-16
v -1.5 -4 -8.881784197001252e-16
v -1.5 -5 -8.881784197001252e-16
v -3.5 -5 -8.881784197001252e-16
v -3.5 -4 -8.881784197001252e-16
v -2.5 -4 -8.881784197001252e-16
v -2.5 -5 -8.881784197001252e-16
v -3.5 -6 0
v -3.5 -5 -8.881784197001252e-16
v -2.5 -5 -8.881784197001252e-16
v -2.5 -6 0
v -4.5 -6 -8.881784197001252e-16
v -4.5 -5 -8.881784197001252e-16
v -3.5 -5 -8.881784197001252e-16
v -3.5 -6 0
v 1.5 -3 -8.881784197001252e-16
v 1.5 -2 -8.881784197001252e-16
v 2.4999999999999996 -2 -8.881784197001252e-16
v 2.5 -3 -8.881784197001252e-16
v 2.5 -3 -8.881784197001252e-16
v 2.4999999999999996 -2 -8.881784197001252e-16
v 3.5 -2 -8.881784197001252e-16
v 3.5 -3 -8.881784197001252e-16
v 3.5 -3 -8.881784197001252e-16
v 3.5 -2 -8.881784197001252e-16
v 4.5 -2 0
v 4.5 -3 0
vt 0.15 0.6
vt 0.1 0.6666666666666667
vt 0.1 0.6
vt 0.15 0.6
vt 0.15 0.6666666666666667
vt 0.1 0.6666666666666667
vt 0.1 0.9333333333333333
vt 0.05 0.9666666666666667
vt 0.05 0.9333333333333333
vt 0.1 0.9333333333333333
vt 0.1 0.9666666666666667
vt 0.05 0.9666666666666667
vt 0.05 0.7333333333333334
vt 0 0.8
vt 0 0.7333333333333334
vt 0.05 0.7333333333333334
vt 0.05 0.8
vt 0 0.8
vt 0.1 0.6666666666666667
vt 0.05 0.6
vt 0.05 0.6666666666666667
vt 0.1 0.6666666666666667
vt 0.1 0.6
vt 0.05 0.6
vt 0.05 0.8
vt 0 0.7333333333333334
vt 0 0.8
vt 0.05 0.8
vt 0.05 0.7333333333333334
vt 0 0.7333333333333334
vt 0.025 1
vt 0 0.9666666666666667
vt 0 1
vt 0.025 1
vt 0.025 0.9666666666666667
vt 0 0.9666666666666667
vt 0.05 0.43333333333333335
vt 0 0.30000000000000004
vt 0 0.43333333333333335
vt 0.05 0.43333333333333335
vt 0.05 0.30000000000000004
vt 0 0.30000000000000004
vt 0.025 0.8
vt 0 0.8666666666666667
vt 0.025 0.8666666666666667
vt 0.025 0.8
vt 0 0.8
vt 0 0.8666666666666667
vt 0.075 0.9
vt 0 0.9333333333333333
vt 0.075 0.9333333333333333
vt 0.075 0.9
vt 0 0.9
vt 0 0.9333333333333333
vt 0.05 0.7333333333333334
vt 0 0.8
vt 0.05 0.8
vt 0.05 0.7333333333333334
vt 0 0.7333333333333334
vt 0 0.8
vt 0.05 0.9333333333333333
vt 0.1 0.9666666666666667
vt 0.1 0.9333333333333333
vt 0.05 0.9333333333333333
vt 0.05 0.9666666666666667
vt 0.1 0.9666666666666667
vt 0 0.7333333333333334
vt 0.075 0.6666666666666667
vt 0 0.6666666666666667
vt 0 0.7333333333333334
vt 0.075 0.7333333333333334
vt 0.075 0.6666666666666667
vt 0.025 0.9333333333333333
vt 0 1
vt 0.025 1
vt 0.025 0.9333333333333333
vt 0 0.9333333333333333
vt 0 1
vt 0.05 0.8666666666666667
vt 0.075 0.9333333333333333
vt 0.05 0.9333333333333333
vt 0.05 0.8666666666666667
vt 0.075 0.8666666666666667
vt 0.075 0.9333333333333333
vt 0 0.43333333333333335
vt 0.125 0.5
vt 0 0.5
vt 0 0.43333333333333335
vt 0.125 0.43333333333333335
vt 0.125 0.5
vt 0 0.7333333333333334
vt 0.05 0.8
vt 0 0.8
vt 0 0.7333333333333334
vt 0.05 0.7333333333333334
vt 0.05 0.8
vt 0 0.7333333333333334
vt 0.05 0.8
vt 0 0.8
vt 0 0.7333333333333334
vt 0.05 0.7333333333333334
vt 0.05 0.8
vt 0 0.9666666666666667
vt 0.025 1
vt 0 1
vt 0 0.9666666666666667
vt 0.025 0.9666666666666667
vt 0.025 1
vt 0 0.9666666666666667
vt 0.025 1
vt 0 1
vt 0 0.9666666666666667
vt 0.025 0.9666666666666667
vt 0.025 1
vt 0 0.6666666666666667
vt 0.075 0.7333333333333334
vt 0 0.7333333333333334
vt 0 0.6666666666666667
vt 0.075 0.6666666666666667
vt 0.075 0.7333333333333334
vt 0 0.7333333333333334
vt 0.05 0.8
vt 0 0.8
vt 0 0.7333333333333334
vt 0.05 0.7333333333333334
vt 0.05 0.8
vt 0.375 0.6333333333333333
vt 0.4 0.6666666666666667
vt 0.375 0.6666666666666667
vt 0.375 0.6333333333333333
vt 0.4 0.6333333333333333
vt 0.4 0.6666666666666667
vt 0.375 0.6333333333333333
vt 0.4 0.6666666666666667
vt 0.375 0.6666666666666667
vt 0.375 0.6333333333333333
vt 0.4 0.6333333333333333
vt 0.4 0.6666666666666667
vt 0.375 0.6333333333333333
vt 0.4 0.6666666666666667
vt 0.375 0.6666666666666667
vt 0.375 0.6333333333333333
vt 0.4 0.6333333333333333
vt 0.4 0.6666666666666667
vt 0.375 0.6333333333333333
vt 0.4 0.6666666666666667
vt 0.375 0.6666666666666667
vt 0.375 0.6333333333333333
vt 0.4 0.6333333333333333
vt 0.4 0.6666666666666667
vt 0.375 0.6333333333333333
vt 0.4 0.6666666666666667
vt 0.375 0.6666666666666667
vt 0.375 0.6333333333333333
vt 0.4 0.6333333333333333
vt 0.4 0.6666666666666667
vt 0.375 0.6333333333333333
vt 0.4 0.6666666666666667
vt 0.375 0.6666666666666667
vt 0.375 0.6333333333333333
vt 0.4 0.6333333333333333
vt 0.4 0.6666666666666667
vt 0.375 0.6333333333333333
vt 0.4 0.6666666666666667
vt 0.375 0.6666666666666667
vt 0.375 0.6333333333333333
vt 0.4 0.6333333333333333
vt 0.4 0.6666666666666667
vt 0.375 0.6333333333333333
vt 0.4 0.6666666666666667
vt 0.375 0.6666666666666667
vt 0.375 0.6333333333333333
vt 0.4 0.6333333333333333
vt 0.4 0.6666666666666667
vt 0.375 0.6333333333333333
vt 0.4 0.6666666666666667
vt 0.375 0.6666666666666667
vt 0.375 0.6333333333333333
vt 0.4 0.6333333333333333
vt 0.4 0.6666666666666667
vt 0.375 0.6333333333333333
vt 0.4 0.6666666666666667
vt 0.375 0.6666666666666667
vt 0.375 0.6333333333333333
vt 0.4 0.6333333333333333
vt 0.4 0.6666666666666667
vt 0.375 0.6333333333333333
vt 0.4 0.6666666666666667
vt 0.375 0.6666666666666667
vt 0.375 0.6333333333333333
vt 0.4 0.6333333333333333
vt 0.4 0.6666666666666667
vt 0.375 0.6333333333333333
vt 0.4 0.6666666666666667
vt 0.375 0.6666666666666667
vt 0.375 0.6333333333333333
vt 0.4 0.6333333333333333
vt 0.4 0.6666666666666667
vt 0.375 0.6333333333333333
vt 0.4 0.6666666666666667
vt 0.375 0.6666666666666667
vt 0.375 0.6333333333333333
vt 0.4 0.6333333333333333
vt 0.4 0.6666666666666667
vt 0.375 0.6333333333333333
vt 0.4 0.6666666666666667
vt 0.375 0.6666666666666667
vt 0.375 0.6333333333333333
vt 0.4 0.6333333333333333
vt 0.4 0.6666666666666667
vt 0.375 0.6333333333333333
vt 0.4 0.6666666666666667
vt 0.375 0.6666666666666667
vt 0.375 0.6333333333333333
vt 0.4 0.6333333333333333
vt 0.4 0.6666666666666667
vt 0.375 0.6333333333333333
vt 0.4 0.6666666666666667
vt 0.375 0.6666666666666667
vt 0.375 0.6333333333333333
vt 0.4 0.6333333333333333
vt 0.4 0.6666666666666667
vt 0.375 0.6333333333333333
vt 0.4 0.6666666666666667
vt 0.375 0.6666666666666667
vt 0.375 0.6333333333333333
vt 0.4 0.6333333333333333
vt 0.4 0.6666666666666667
vn 0 0 1
vn 0 0 1
vn 0 0 1
vn 0 0 1
vn 0 0 1
vn 0 0 1
vn 0 0.999999995 0.00009999999949994454
vn 0 0.999999995 0.00009999999949994454
vn 0 0.999999995 0.00009999999949994454
vn 0 0.999999995 0.00009999999949994454
vn 0 0.999999995 0.00009999999949994454
vn 0 0.999999995 0.00009999999949994454
vn -1 0 0
vn -1 0 0
vn -1 0 0
vn -1 0 0
vn -1 0 0
vn -1 0 0
vn 0 0 -1
vn 0 0 -1
vn 0 0 -1
vn 0 0 -1
vn 0 0 -1
vn 0 0 -1
vn 0 -0.999999995 0.00009999999949994454
vn 0 -0.999999995 0.00009999999949994454
vn 0 -0.999999995 0.00009999999949994454
vn 0 -0.999999995 0.00009999999949994454
vn 0 -0.999999995 0.00009999999949994454
vn 0 -0.999999995 0.00009999999949994454
vn 0.894413673921136 0.44724062639998824 0.00004472406263997401
vn 0.894413673921136 0.44724062639998824 0.00004472406263997401
vn 0.894413673921136 0.44724062639998824 0.00004472406263997401
vn 0.8944315657981007 0.4472048457965969 -1.986037036601164e-16
vn 0.8944315657981007 0.4472048457965969 -1.986037036601164e-16
vn 0.8944315657981007 0.4472048457965969 -1.986037036601164e-16
vn 0 0.999999995 0.00009999999949994454
vn 0 0.999999995 0.00009999999949994454
vn 0 0.999999995 0.00009999999949994454
vn 0 0.999999995 0.00009999999949994454
vn 0 0.999999995 0.00009999999949994454
vn 0 0.999999995 0.00009999999949994454
vn 0 0 1
vn 0 0 1
vn 0 0 1
vn 0 0 1
vn 0 0 1
vn 0 0 1
vn 0 0 0.9999999999999999
vn 0 0 0.9999999999999999
vn 0 0 0.9999999999999999
vn 0 0 0.9999999999999999
vn 0 0 0.9999999999999999
vn 0 0 0.9999999999999999
vn -1 0 2.220446049250313e-16
vn -1 0 2.220446049250313e-16
vn -1 0 2.220446049250313e-16
vn -1 0 2.220446049250313e-16
vn -1 0 2.220446049250313e-16
vn -1 0 2.220446049250313e-16
vn 0 0.999999995 0.00009999999949994454
vn 0 0.999999995 0.00009999999949994454
vn 0 0.999999995 0.00009999999949994454
vn 0 0.999999995 0.00009999999949994454
vn 0 0.999999995 0.00009999999949994454
vn 0 0.999999995 0.00009999999949994454
vn 0.000007140497509063235 0.9999999949745066 0.00009999999949739521
vn 0.000007140497509063235 0.9999999949745066 0.00009999999949739521
vn 0.000007140497509063235 0.9999999949745066 0.00009999999949739521
vn 0.000007140497509063235 0.9999999949745066 0.00009999999949739521
vn 0.000007140497509063235 0.9999999949745066 0.00009999999949739521
vn 0.000007140497509063235 0.9999999949745066 0.00009999999949739521
vn 0 0 1
vn 0 0 1
vn 0 0 1
vn 0 0 1
vn 0 0 1
vn 0 0 1
vn 0 0 1
vn 0 0 1
vn 0 0 1
vn 0 0 1
vn 0 0 1
vn 0 0 1
vn -1.8735013540549517e-16 2.42861286636753e-17 1
vn -1.8735013540549517e-16 2.42861286636753e-17 1
vn -1.8735013540549517e-16 2.42861286636753e-17 1
vn 0 -4.440892098500626e-16 1
vn 0 -4.440892098500626e-16 1
vn 0 -4.440892098500626e-16 1
vn 0 4.683753385137379e-16 1
vn 0 4.683753385137379e-16 1
vn 0 4.683753385137379e-16 1
vn 4.440892098500627e-16 2.42861286636752e-17 1
vn 4.440892098500627e-16 2.42861286636752e-17 1
vn 4.440892098500627e-16 2.42861286636752e-17 1
vn 1 0 2.220446049250313e-16
vn 1 0 2.220446049250313e-16
vn 1 0 2.220446049250313e-16
vn 1 0 2.220446049250313e-16
vn 1 0 2.220446049250313e-16
vn 1 0 2.220446049250313e-16
vn 1 -8.881784197001252e-16 0
vn 1 -8.881784197001252e-16 0
vn 1 -8.881784197001252e-16 0
vn 1 0 8.881784197001252e-16
vn 1 0 8.881784197001252e-16
vn 1 0 8.881784197001252e-16
vn 1 0 -4.440892098500627e-16
vn 1 0 -4.440892098500627e-16
vn 1 0 -4.440892098500627e-16
vn 1 1.972152263052529e-31 -4.440892098500625e-16
vn 1 1.972152263052529e-31 -4.440892098500625e-16
vn 1 1.972152263052529e-31 -4.440892098500625e-16
vn 0 -0.999999995 0.00009999999949988904
vn 0 -0.999999995 0.00009999999949988904
vn 0 -0.999999995 0.00009999999949988904
vn 0 -0.999999995 0.00009999999949988904
vn 0 -0.999999995 0.00009999999949988904
vn 0 -0.999999995 0.00009999999949988904
vn -1 0 0
vn -1 0 0
vn -1 0 0
vn -1 0 0
vn -1 0 0
vn -1 0 0
vn 0 0 1
vn 0 0 1
vn 0 0 1
vn 0 0 1
vn 0 0 1
vn 0 0 1
vn 0 0 1
vn 0 0 1
vn 0 0 1
vn 8.881784197001252e-16 -8.881784197001252e-16 1
vn 8.881784197001252e-16 -8.881784197001252e-16 1
vn 8.881784197001252e-16 -8.881784197001252e-16 1
vn 0 0 1
vn 0 0 1
vn 0 0 1
vn 0 0 1
vn 0 0 1
vn 0 0 1
vn -8.881784197001252e-16 0 1
vn -8.881784197001252e-16 0 1
vn -8.881784197001252e-16 0 1
vn -8.881784197001252e-16 0 1
vn -8.881784197001252e-16 0 1
vn -8.881784197001252e-16 0 1
vn 0 0 1
vn 0 0 1
vn 0 0 1
vn -8.881784197001252e-16 8.881784197001252e-16 1
vn -8.881784197001252e-16 8.881784197001252e-16 1
vn -8.881784197001252e-16 8.881784197001252e-16 1
vn 0 0 1
vn 0 0 1
vn 0 0 1
vn 0 0 1
vn 0 0 1
vn 0 0 1
vn 0 0 1
vn 0 0 1
vn 0 0 1
vn 0 0 1
vn 0 0 1
vn 0 0 1
vn -8.881784197001252e-16 0 1
vn -8.881784197001252e-16 0 1
vn -8.881784197001252e-16 0 1
vn -8.881784197001252e-16 0 1
vn -8.881784197001252e-16 0 1
vn -8.881784197001252e-16 0 1
vn -8.881784197001252e-16 0 1
vn -8.881784197001252e-16 0 1
vn -8.881784197001252e-16 0 1
vn 0 -8.881784197001252e-16 1
vn 0 -8.881784197001252e-16 1
vn 0 -8.881784197001252e-16 1
vn 0 0 1
vn 0 0 1
vn 0 0 1
vn 0 0 1
vn 0 0 1
vn 0 0 1
vn 0 0 1
vn 0 0 1
vn 0 0 1
vn 0 0 1
vn 0 0 1
vn 0 0 1
vn 0 0 1
vn 0 0 1
vn 0 0 1
vn 0 0 1
vn 0 0 1
vn 0 0 1
vn 0 8.881784197001252e-16 1
vn 0 8.881784197001252e-16 1
vn 0 8.881784197001252e-16 1
vn 0 8.881784197001252e-16 1
vn 0 8.881784197001252e-16 1
vn 0 8.881784197001252e-16 1
vn 0 0 1
vn 0 0 1
vn 0 0 1
vn -8.881784197001252e-16 8.881784197001252e-16 1
vn -8.881784197001252e-16 8.881784197001252e-16 1
vn -8.881784197001252e-16 8.881784197001252e-16 1
vn 0 0 1
vn 0 0 1
vn 0 0 1
vn 0 0 1
vn 0 0 1
vn 0 0 1
vn 0 0 1
vn 0 0 1
vn 0 0 1
vn 0 0 1
vn 0 0 1
vn 0 0 1
vn -8.881784197001252e-16 0 1
vn -8.881784197001252e-16 0 1
vn -8.881784197001252e-16 0 1
vn -8.881784197001252e-16 0 1
vn -8.881784197001252e-16 0 1
vn -8.881784197001252e-16 0 1
g Scene
usemtl material1
f 1/1/1 3/2/2 2/3/3
f 1/4/4 4/5/5 3/6/6
f 5/7/7 7/8/8 6/9/9
f 5/10/10 8/11/11 7/12/12
f 9/13/13 11/14/14 10/15/15
f 9/16/16 12/17/17 11/18/18
f 13/19/19 15/20/20 14/21/21
f 13/22/22 16/23/23 15/24/24
f 17/25/25 19/26/26 18/27/27
f 17/28/28 20/29/29 19/30/30
f 21/31/31 23/32/32 22/33/33
f 21/34/34 24/35/35 23/36/36
f 25/37/37 27/38/38 26/39/39
f 25/40/40 28/41/41 27/42/42
f 29/43/43 31/44/44 30/45/45
f 29/46/46 32/47/47 31/48/48
f 33/49/49 35/50/50 34/51/51
f 33/52/52 36/53/53 35/54/54
f 37/55/55 39/56/56 38/57/57
f 37/58/58 40/59/59 39/60/60
f 41/61/61 43/62/62 42/63/63
f 41/64/64 44/65/65 43/66/66
f 45/67/67 47/68/68 46/69/69
f 45/70/70 48/71/71 47/72/72
usemtl material2
f 49/73/73 51/74/74 50/75/75
f 49/76/76 52/77/77 51/78/78
f 53/79/79 55/80/80 54/81/81
f 53/82/82 56/83/83 55/84/84
usemtl material1
f 57/85/85 59/86/86 58/87/87
f 57/88/88 60/89/89 59/90/90
f 61/91/91 63/92/92 62/93/93
f 61/94/94 64/95/95 63/96/96
f 65/97/97 67/98/98 66/99/99
f 65/100/100 68/101/101 67/102/102
f 69/103/103 71/104/104 70/105/105
f 69/106/106 72/107/107 71/108/108
f 73/109/109 75/110/110 74/111/111
f 73/112/112 76/113/113 75/114/114
f 77/115/115 79/116/116 78/117/117
f 77/118/118 80/119/119 79/120/120
f 81/121/121 83/122/122 82/123/123
f 81/124/124 84/125/125 83/126/126
f 85/127/127 87/128/128 86/129/129
f 85/130/130 88/131/131 87/132/132
f 89/133/133 91/134/134 90/135/135
f 89/136/136 92/137/137 91/138/138
f 93/139/139 95/140/140 94/141/141
f 93/142/142 96/143/143 95/144/144
f 97/145/145 99/146/146 98/147/147
f 97/148/148 100/149/149 99/150/150
f 101/151/151 103/152/152 102/153/153
f 101/154/154 104/155/155 103/156/156
f 105/157/157 107/158/158 106/159/159
f 105/160/160 108/161/161 107/162/162
f 109/163/163 111/164/164 110/165/165
f 109/166/166 112/167/167 111/168/168
f 113/169/169 115/170/170 114/171/171
f 113/172/172 116/173/173 115/174/174
f 117/175/175 119/176/176 118/177/177
f 117/178/178 120/179/179 119/180/180
f 121/181/181 123/182/182 122/183/183
f 121/184/184 124/185/185 123/186/186
f 125/187/187 127/188/188 126/189/189
f 125/190/190 128/191/191 127/192/192
f 129/193/193 131/194/194 130/195/195
f 129/196/196 132/197/197 131/198/198
f 133/199/199 135/200/200 134/201/201
f 133/202/202 136/203/203 135/204/204
f 137/205/205 139/206/206 138/207/207
f 137/208/208 140/209/209 139/210/210
f 141/211/211 143/212/212 142/213/213
f 141/214/214 144/215/215 143/216/216
f 145/217/217 147/218/218 146/219/219
f 145/220/220 148/221/221 147/222/222
f 149/223/223 151/224/224 150/225/225
f 149/226/226 152/227/227 151/228/228
