o Default
v -3.4012354446095715e-15 0 0
v 8.98895385429625e-16 1 0
v 2.6752522248298757e-15 1 8
v 9.170269612058291e-16 0 8
v -3.623280049534603e-15 0 -1
v -6.988444252919244e-17 8 -1
v -3.4012354446095715e-15 8 0
v -3.4012354446095715e-15 0 0
v 0 1 3.552713678800501e-15
v 0 9 3.552713678800501e-15
v 1 9 3.552713678800501e-15
v 1 1 0
v 1.0000000000000009 1 -3.552713678800501e-15
v 1 9 2.220446049250313e-16
v 1.0000000000000004 9 -0.9999999999999998
v 1.0000000000000004 1 -0.9999999999999998
v 1 0 3.552713678800501e-15
v 1 1 0
v 9 1 0
v 9 0 0
v 0.999999999999999 0 7.9999999999999964
v 0.999999999999999 1 7.9999999999999964
v 1.0000000000000009 1 -3.552713678800501e-15
v 0.9999999999999964 0 0
v 0 8.000102423760765 -0.9999500000002499
v 0 8.000302423759765 1.0000499899997501
v 2 8.000302423759765 1.0000499899997501
v 2 8.000102423760765 -0.9999500000002499
v 0 9.999801149939291 0.9998499900007503
v 0 10.00000114993829 -1.0001499999992498
v 2 10.00000114993829 -1.0001499999992498
v 2 9.999801149939291 0.9998499900007503
v -6.988444252919264e-17 8 -1
v 9.308286795574546e-17 10 -1
v 5.371720778058081e-16 10 1
v 5.371720778058081e-16 8 1
v 2 8 -1
v 2 10 -1
v 0 10 -1
v 0 8 -1
v 2.0000000000000004 8 1.0000000000000002
v 2.0000000000000004 10 1.0000000000000002
v 2.000000000000001 10 -0.9999999999999998
v 2.000000000000001 8 -0.9999999999999998
v 0 8 1
v 0 10 1
v 2 10 1
v 2 8 1
v 9 0.00006572805660483028 -0.9999499950002501
v 9 0.00005968341153874459 0.9998500000007498
v 11 0.00005968341153874459 0.9998500000007498
v 11 -0.00014031658746114448 -1.0001499899992503
v 9 0 -1
v 9 2 -1
v 9 2 1
v 9 0 1
v 9 0 0.9999999999999964
v 9 2 0.9999999999999964
v 11 2 0.9999999999999964
v 11 0 0.9999999999999964
v 11 0 -1
v 11 2 -1
v 9 2 -1
v 9 0 -0.9999999999999964
v 9 1.9998760450197772 0.9998499900007503
v 9 2.000076045018777 -1.0001499999992498
v 11 2.000076045018777 -1.0001499999992498
v 11 1.9998760450197772 0.9998499900007503
v 11 0 0.9999999999999996
v 11 2 0.9999999999999996
v 11 2 -1.0000000000000004
v 11 0 -1.0000000000000004
v 0 0.000006956914456027983 8.000049999999751
v 0 0.00020695691345591706 10.00004998999975
v 2 0.00020695691345591706 10.00004998999975
v 2 0.000006956914456027983 8.000049999999751
v 0 1.9998815414310305 9.99984999000075
v 0 2.0000815414300304 7.999850000000749
v 2 2.0000815414300304 7.999850000000749
v 2 1.9998815414310305 9.99984999000075
v 2 0 8
v 2 2 8
v 0 2 8
v 0 0 8
v 2 0 10
v 2 2 10
v 2.0000000000000004 2 8
v 2.0000000000000004 0 8
v 9.170269612058291e-16 0 8
v -2.6220467490715457e-16 2 8
v 1.8188453494290807e-16 2 10
v 1.8188453494290807e-16 0 10
v 0 0 10.000000000000002
v 0 2 10.000000000000002
v 2 2 10.000000000000002
v 2 0 10.000000000000002
v 0 0.9995585949731854 7.99924996000375
v 0 1.0003585949691849 -0.0007499999962501391
v 1 1.0003585949691849 -0.0007499999962501391
v 1 0.9995585949731854 7.99924996000375
v 9 0 -0.9999999999999964
v 9 1 -0.9999999999999964
v 1 1 -0.9999999999999964
v 1 0 -1
v 1 1.0000037555593093 0.00004999999974997227
v 1 1.000103755558809 -0.9999499950002501
v 9 1.000103755558809 -0.9999499950002501
v 9 1.0000037555593093 0.00004999999974997227
v 0 -0.00010892168387378762 -1.0000499949997501
v 0 -0.000008921684373843076 -0.00004999999975008329
v 1 -0.00003427194289511424 0.000049999999749861246
v 1 0.00006572805660483028 -0.9999499950002501
v 1 0 -1
v 1 8 -1
v 0 8 -1
v 0 0 -1
v 1 -0.00003427194289511424 0.00004999999974997227
v 1 0.0000657280566048303 -0.9999499950002501
v 9 0.0000657280566048303 -0.9999499950002501
v 9 -0.00003427194289511424 0.00004999999974997227
v 0 -0.0003470762504304996 7.99924996000375
v 0 0.0004529237455690567 -0.0007499999962501391
v 1 0.0004529237455690567 -0.0007499999962501391
v 1 -0.0003470762504304996 7.99924996000375
vt 0 0.5625
vt 0.25 0.59375
vt 0 0.59375
vt 0 0.5625
vt 0.25 0.5625
vt 0.25 0.59375
vt 0 0.59375
vt 0.25 0.5625
vt 0.25 0.59375
vt 0 0.59375
vt 0 0.5625
vt 0.25 0.5625
vt 0 0.625
vt 0.25 0.59375
vt 0.25 0.625
vt 0 0.625
vt 0 0.59375
vt 0.25 0.59375
vt 0 0.59375
vt 0.25 0.5625
vt 0.25 0.59375
vt 0 0.59375
vt 0 0.5625
vt 0.25 0.5625
vt 0.25 0.59375
vt 0 0.5625
vt 0.25 0.5625
vt 0.25 0.59375
vt 0 0.59375
vt 0 0.5625
vt 0.25 0.59375
vt 0 0.5625
vt 0.25 0.5625
vt 0.25 0.59375
vt 0 0.59375
vt 0 0.5625
vt 0.125 0.5
vt 0.0625 0.5625
vt 0.0625 0.5
vt 0.125 0.5
vt 0.125 0.5625
vt 0.0625 0.5625
vt 0.0625 0.5625
vt 0.125 0.5
vt 0.125 0.5625
vt 0.0625 0.5625
vt 0.0625 0.5
vt 0.125 0.5
vt 0.0625 0.5
vt 0.125 0.5625
vt 0.0625 0.5625
vt 0.0625 0.5
vt 0.125 0.5
vt 0.125 0.5625
vt 0.0625 0.5
vt 0.125 0.5625
vt 0.0625 0.5625
vt 0.0625 0.5
vt 0.125 0.5
vt 0.125 0.5625
vt 0.0625 0.5
vt 0.125 0.5625
vt 0.0625 0.5625
vt 0.0625 0.5
vt 0.125 0.5
vt 0.125 0.5625
vt 0.0625 0.5
vt 0.125 0.5625
vt 0.0625 0.5625
vt 0.0625 0.5
vt 0.125 0.5
vt 0.125 0.5625
vt 0 0.5625
vt 0.0625 0.5
vt 0.0625 0.5625
vt 0 0.5625
vt 0 0.5
vt 0.0625 0.5
vt 0.0625 0.5625
vt 0 0.5
vt 0.0625 0.5
vt 0.0625 0.5625
vt 0 0.5625
vt 0 0.5
vt 0.0625 0.5625
vt 0 0.5
vt 0.0625 0.5
vt 0.0625 0.5625
vt 0 0.5625
vt 0 0.5
vt 0.0625 0.5625
vt 0 0.5
vt 0.0625 0.5
vt 0.0625 0.5625
vt 0 0.5625
vt 0 0.5
vt 0.0625 0.5
vt 0 0.5625
vt 0 0.5
vt 0.0625 0.5
vt 0.0625 0.5625
vt 0 0.5625
vt 0 0.5
vt 0.0625 0.5625
vt 0 0.5625
vt 0 0.5
vt 0.0625 0.5
vt 0.0625 0.5625
vt 0.125 0.5
vt 0.1875 0.5625
vt 0.125 0.5625
vt 0.125 0.5
vt 0.1875 0.5
vt 0.1875 0.5625
vt 0.125 0.5
vt 0.1875 0.5625
vt 0.125 0.5625
vt 0.125 0.5
vt 0.1875 0.5
vt 0.1875 0.5625
vt 0.125 0.5
vt 0.1875 0.5625
vt 0.125 0.5625
vt 0.125 0.5
vt 0.1875 0.5
vt 0.1875 0.5625
vt 0.125 0.5
vt 0.1875 0.5625
vt 0.125 0.5625
vt 0.125 0.5
vt 0.1875 0.5
vt 0.1875 0.5625
vt 0.125 0.5
vt 0.1875 0.5625
vt 0.125 0.5625
vt 0.125 0.5
vt 0.1875 0.5
vt 0.1875 0.5625
vt 0.125 0.5
vt 0.1875 0.5625
vt 0.125 0.5625
vt 0.125 0.5
vt 0.1875 0.5
vt 0.1875 0.5625
vt 0.25 0.59375
vt 0 0.625
vt 0 0.59375
vt 0.25 0.59375
vt 0.25 0.625
vt 0 0.625
vt 0 0.59375
vt 0.25 0.625
vt 0 0.625
vt 0 0.59375
vt 0.25 0.59375
vt 0.25 0.625
vt 0 0.59375
vt 0.25 0.625
vt 0 0.625
vt 0 0.59375
vt 0.25 0.59375
vt 0.25 0.625
vt 0 0.59375
vt 0.03125 0.625
vt 0 0.625
vt 0 0.59375
vt 0.03125 0.59375
vt 0.03125 0.625
vt 0 0.625
vt 0.25 0.59375
vt 0.25 0.625
vt 0 0.625
vt 0 0.59375
vt 0.25 0.59375
vt 0.25 0.59375
vt 0 0.59375
vt 0.25 0.625
vt 0 0.59375
vt 0 0.625
vt 0.25 0.625
vt 0 0.59375
vt 0 0.625
vt 0.25 0.59375
vt 0 0.625
vt 0.25 0.625
vt 0.25 0.59375
vn -1 4.300130830039197e-15 2.220446049250313e-16
vn -1 4.300130830039197e-15 2.220446049250313e-16
vn -1 4.300130830039197e-15 2.220446049250313e-16
vn -1 1.7582252636240466e-15 5.39782800726925e-16
vn -1 1.7582252636240466e-15 5.39782800726925e-16
vn -1 1.7582252636240466e-15 5.39782800726925e-16
vn -1 4.441744508756763e-16 -3.331351002080379e-15
vn -1 4.441744508756763e-16 -3.331351002080379e-15
vn -1 4.441744508756763e-16 -3.331351002080379e-15
vn -1 0 2.220446049250313e-16
vn -1 0 2.220446049250313e-16
vn -1 0 2.220446049250313e-16
vn 0 0 1
vn 0 0 1
vn 0 0 1
vn 3.552713678800501e-15 -4.440892098500626e-16 1
vn 3.552713678800501e-15 -4.440892098500626e-16 1
vn 3.552713678800501e-15 -4.440892098500626e-16 1
vn 1 1.1102230246251544e-16 4.440892098500626e-16
vn 1 1.1102230246251544e-16 4.440892098500626e-16
vn 1 1.1102230246251544e-16 4.440892098500626e-16
vn 1 0 -4.440892098500643e-16
vn 1 0 -4.440892098500643e-16
vn 1 0 -4.440892098500643e-16
vn 0 3.552713678800501e-15 1
vn 0 3.552713678800501e-15 1
vn 0 3.552713678800501e-15 1
vn 4.440892098500626e-16 0 1
vn 4.440892098500626e-16 0 1
vn 4.440892098500626e-16 0 1
vn 1 0 2.3592239273284576e-16
vn 1 0 2.3592239273284576e-16
vn 1 0 2.3592239273284576e-16
vn 1 -4.440892098500627e-15 -3.1918911957973265e-16
vn 1 -4.440892098500627e-15 -3.1918911957973265e-16
vn 1 -4.440892098500627e-15 -3.1918911957973265e-16
vn 0 -0.999999995 0.00009999999949972249
vn 0 -0.999999995 0.00009999999949972249
vn 0 -0.999999995 0.00009999999949972249
vn 0 -0.999999995 0.00009999999949972249
vn 0 -0.999999995 0.00009999999949972249
vn 0 -0.999999995 0.00009999999949972249
vn 0 0.999999995 0.00009999999949972249
vn 0 0.999999995 0.00009999999949972249
vn 0 0.999999995 0.00009999999949972249
vn 0 0.999999995 0.00009999999949972249
vn 0 0.999999995 0.00009999999949972249
vn 0 0.999999995 0.00009999999949972249
vn -1 8.148365524246905e-17 2.220446049250313e-16
vn -1 8.148365524246905e-17 2.220446049250313e-16
vn -1 8.148365524246905e-17 2.220446049250313e-16
vn -1 0 3.0352826016750036e-16
vn -1 0 3.0352826016750036e-16
vn -1 0 3.0352826016750036e-16
vn 0 0 -1
vn 0 0 -1
vn 0 0 -1
vn 0 0 -1
vn 0 0 -1
vn 0 0 -1
vn 1 0 2.220446049250313e-16
vn 1 0 2.220446049250313e-16
vn 1 0 2.220446049250313e-16
vn 1 0 2.220446049250313e-16
vn 1 0 2.220446049250313e-16
vn 1 0 2.220446049250313e-16
vn 0 0 1
vn 0 0 1
vn 0 0 1
vn 0 0 1
vn 0 0 1
vn 0 0 1
vn 0 -0.9999999999954319 -0.0000030226248030643994
vn 0 -0.9999999999954319 -0.0000030226248030643994
vn 0 -0.9999999999954319 -0.0000030226248030643994
vn -0.00010301232122141617 -0.9999999896942309 0.00009999999896936762
vn -0.00010301232122141617 -0.9999999896942309 0.00009999999896936762
vn -0.00010301232122141617 -0.9999999896942309 0.00009999999896936762
vn -1 0 0
vn -1 0 0
vn -1 0 0
vn -1 0 0
vn -1 0 0
vn -1 0 0
vn 0 0 1
vn 0 0 1
vn 0 0 1
vn 0 0 1
vn 0 0 1
vn 0 0 1
vn 0 0 -1
vn 0 0 -1
vn 0 0 -1
vn -1.7763568394002505e-15 -1.7763568394002505e-15 -1
vn -1.7763568394002505e-15 -1.7763568394002505e-15 -1
vn -1.7763568394002505e-15 -1.7763568394002505e-15 -1
vn 0 0.999999995 0.00009999999949994454
vn 0 0.999999995 0.00009999999949994454
vn 0 0.999999995 0.00009999999949994454
vn 0 0.999999995 0.00009999999949994454
vn 0 0.999999995 0.00009999999949994454
vn 0 0.999999995 0.00009999999949994454
vn 1 0 0
vn 1 0 0
vn 1 0 0
vn 1 0 0
vn 1 0 0
vn 1 0 0
vn 0 -0.999999995 0.00009999999949994458
vn 0 -0.999999995 0.00009999999949994458
vn 0 -0.999999995 0.00009999999949994458
vn 0 -0.999999995 0.00009999999949994458
vn 0 -0.999999995 0.00009999999949994458
vn 0 -0.999999995 0.00009999999949994458
vn 0 0.999999995 0.00009999999949994454
vn 0 0.999999995 0.00009999999949994454
vn 0 0.999999995 0.00009999999949994454
vn 0 0.999999995 0.00009999999949994454
vn 0 0.999999995 0.00009999999949994454
vn 0 0.999999995 0.00009999999949994454
vn 0 0 -1
vn 0 0 -1
vn 0 0 -1
vn 0 0 -1
vn 0 0 -1
vn 0 0 -1
vn 1 0 2.220446049250313e-16
vn 1 0 2.220446049250313e-16
vn 1 0 2.220446049250313e-16
vn 1 0 2.220446049250313e-16
vn 1 0 2.220446049250313e-16
vn 1 0 2.220446049250313e-16
vn -1 -5.896158180564918e-16 2.220446049250313e-16
vn -1 -5.896158180564918e-16 2.220446049250313e-16
vn -1 -5.896158180564918e-16 2.220446049250313e-16
vn -1 0 -3.6757121313146053e-16
vn -1 0 -3.6757121313146053e-16
vn -1 0 -3.6757121313146053e-16
vn 0 0 1
vn 0 0 1
vn 0 0 1
vn 0 0 1
vn 0 0 1
vn 0 0 1
vn 0 0.999999995 0.00009999999949993066
vn 0 0.999999995 0.00009999999949993066
vn 0 0.999999995 0.00009999999949993066
vn 0 0.999999995 0.00009999999949993066
vn 0 0.999999995 0.00009999999949993066
vn 0 0.999999995 0.00009999999949993066
vn 0 0 -1
vn 0 0 -1
vn 0 0 -1
vn 4.440892098500626e-16 3.552713678800501e-15 -1
vn 4.440892098500626e-16 3.552713678800501e-15 -1
vn 4.440892098500626e-16 3.552713678800501e-15 -1
vn 0 0.999999995 0.00009999999949972249
vn 0 0.999999995 0.00009999999949972249
vn 0 0.999999995 0.00009999999949972249
vn 0 0.999999995 0.00009999999949972249
vn 0 0.999999995 0.00009999999949972249
vn 0 0.999999995 0.00009999999949972249
vn -0.00002536025838626473 -0.9999999946784288 0.00009999999946778741
vn -0.00002536025838626473 -0.9999999946784288 0.00009999999946778741
vn -0.00002536025838626473 -0.9999999946784288 0.00009999999946778741
vn 0.00017465973694118215 -0.9999999797469883 -0.00009999999797464336
vn 0.00017465973694118215 -0.9999999797469883 -0.00009999999797464336
vn 0.00017465973694118215 -0.9999999797469883 -0.00009999999797464336
vn 0 0 -1
vn 0 0 -1
vn 0 0 -1
vn 0 0 -1
vn 0 0 -1
vn 0 0 -1
vn 0 -0.999999995 -0.00009999999949994454
vn 0 -0.999999995 -0.00009999999949994454
vn 0 -0.999999995 -0.00009999999949994454
vn 0 -0.999999995 -0.00009999999949994454
vn 0 -0.999999995 -0.00009999999949994454
vn 0 -0.999999995 -0.00009999999949994454
vn 0 -0.999999995 -0.00009999999949994454
vn 0 -0.999999995 -0.00009999999949994454
vn 0 -0.999999995 -0.00009999999949994454
vn 0 -0.999999995 -0.00009999999949994454
vn 0 -0.999999995 -0.00009999999949994454
vn 0 -0.999999995 -0.00009999999949994454
g Scene
f 1/1/1 3/2/2 2/3/3
f 1/4/4 4/5/5 3/6/6
f 5/7/7 7/8/8 6/9/9
f 5/10/10 8/11/11 7/12/12
f 9/13/13 11/14/14 10/15/15
f 9/16/16 12/17/17 11/18/18
f 13/19/19 15/20/20 14/21/21
f 13/22/22 16/23/23 15/24/24
f 17/25/25 19/26/26 18/27/27
f 17/28/28 20/29/29 19/30/30
f 21/31/31 23/32/32 22/33/33
f 21/34/34 24/35/35 23/36/36
f 25/37/37 27/38/38 26/39/39
f 25/40/40 28/41/41 27/42/42
f 29/43/43 31/44/44 30/45/45
f 29/46/46 32/47/47 31/48/48
f 33/49/49 35/50/50 34/51/51
f 33/52/52 36/53/53 35/54/54
f 37/55/55 39/56/56 38/57/57
f 37/58/58 40/59/59 39/60/60
f 41/61/61 43/62/62 42/63/63
f 41/64/64 44/65/65 43/66/66
f 45/67/67 47/68/68 46/69/69
f 45/70/70 48/71/71 47/72/72
f 49/73/73 51/74/74 50/75/75
f 49/76/76 52/77/77 51/78/78
f 53/79/79 55/80/80 54/81/81
f 53/82/82 56/83/83 55/84/84
f 57/85/85 59/86/86 58/87/87
f 57/88/88 60/89/89 59/90/90
f 61/91/91 63/92/92 62/93/93
f 61/94/94 64/95/95 63/96/96
f 65/97/97 67/98/98 66/99/99
f 65/100/100 68/101/101 67/102/102
f 69/103/103 71/104/104 70/105/105
f 69/106/106 72/107/107 71/108/108
f 73/109/109 75/110/110 74/111/111
f 73/112/112 76/113/113 75/114/114
f 77/115/115 79/116/116 78/117/117
f 77/118/118 80/119/119 79/120/120
f 81/121/121 83/122/122 82/123/123
f 81/124/124 84/125/125 83/126/126
f 85/127/127 87/128/128 86/129/129
f 85/130/130 88/131/131 87/132/132
f 89/133/133 91/134/134 90/135/135
f 89/136/136 92/137/137 91/138/138
f 93/139/139 95/140/140 94/141/141
f 93/142/142 96/143/143 95/144/144
f 97/145/145 99/146/146 98/147/147
f 97/148/148 100/149/149 99/150/150
f 101/151/151 103/152/152 102/153/153
f 101/154/154 104/155/155 103/156/156
f 105/157/157 107/158/158 106/159/159
f 105/160/160 108/161/161 107/162/162
f 109/163/163 111/164/164 110/165/165
f 109/166/166 112/167/167 111/168/168
f 113/169/169 115/170/170 114/171/171
f 113/172/172 116/173/173 115/174/174
f 118/175/175 119/176/176 117/177/177
f 119/178/178 120/179/179 117/180/180
f 122/181/181 123/182/182 121/183/183
f 123/184/184 124/185/185 121/186/186
