o Default
v 0.9999999999999979 -1.5 1.0000000000000004
v -4.440892098500626e-16 0 1.1102230246251565e-16
v 1.1102230246251565e-16 0 0
v 0.9999999999999983 -1.5 -0.9999999999999996
v -1.0000000000000004 -1.5 1.0000000000000002
v -4.440892098500626e-16 0 1.9984014443252818e-15
v -4.440892098500626e-16 0 1.9984014443252818e-15
v 0.9999999999999996 -1.5 1.0000000000000002
v 0.9999999999999996 -1.5 -0.999999999999998
v -4.440892098500626e-16 0 1.6653345369377348e-16
v -4.440892098500626e-16 0 1.6653345369377348e-16
v -1.0000000000000004 -1.5 -0.999999999999998
v -1.0000000000000004 -1.5 -0.9999999999999998
v -3.885780586188048e-16 0 1.6653345369377348e-16
v 0 0 1.6653345369377348e-16
v -1 -1.5 1.0000000000000002
v -1.0000000000000027 -4.5 0.9999999999999998
v -1.0000000000000027 -1.5 0.9999999999999998
v -1.0000000000000022 -1.5 -1.0000000000000002
v -1.0000000000000022 -4.5 -1.0000000000000002
v -1.0000000000000004 -4.5 -0.9999999999999998
v -1.0000000000000004 -1.5 -0.9999999999999998
v 0.9999999999999996 -1.5 -0.9999999999999998
v 0.9999999999999996 -4.5 -0.9999999999999998
v -1.0000000000000004 -4.5 -0.9999999999999998
v -1.0000000000000004 -1.5 -0.9999999999999998
v -1 -1.5 1.0000000000000002
v -1 -4.5 1.0000000000000002
v 0.9999999999999996 -4.5 -0.999999999999998
v 0.9999999999999996 -1.5 -0.999999999999998
v -1.0000000000000004 -1.5 -0.999999999999998
v -1.0000000000000004 -4.5 -0.999999999999998
v 0.9999999999999991 -4.5 -0.9999999999999998
v 0.9999999999999991 -1.5 -0.9999999999999998
v 0.9999999999999996 -1.5 1.0000000000000002
v 0.9999999999999996 -4.5 1.0000000000000002
v 0.9999999999999996 -4.5 1.0000000000000002
v 0.9999999999999996 -1.5 1.0000000000000002
v -1.0000000000000004 -1.5 1.0000000000000002
v -1.0000000000000004 -4.5 1.0000000000000002
v 0.9999999999999979 -4.5 1.0000000000000004
v 0.9999999999999979 -1.5 1.0000000000000004
v 0.9999999999999983 -1.5 -0.9999999999999996
v 0.9999999999999983 -4.5 -0.9999999999999996
v -1.0000000000000004 -4.5 1
v -1.0000000000000004 -1.5 1
v 0.9999999999999996 -1.5 1
v 0.9999999999999996 -4.5 1
vt 0.375 0.8125
vt 0.5 1
vt 0.375 1
vt 0.375 0.8125
vt 0.5 0.8125
vt 0.5 1
vt 0.375 0.8125
vt 0.5 1
vt 0.375 1
vt 0.375 0.8125
vt 0.5 0.8125
vt 0.5 1
vt 0.375 0.8125
vt 0.5 1
vt 0.375 1
vt 0.375 0.8125
vt 0.5 0.8125
vt 0.5 1
vt 0.375 0.8125
vt 0.5 1
vt 0.375 1
vt 0.375 0.8125
vt 0.5 0.8125
vt 0.5 1
vt 0.375 0.8125
vt 0.5 1
vt 0.375 1
vt 0.375 0.8125
vt 0.5 0.8125
vt 0.5 1
vt 0.25 0.8125
vt 0.375 1
vt 0.25 1
vt 0.25 0.8125
vt 0.375 0.8125
vt 0.375 1
vt 0.125 0.8125
vt 0.25 1
vt 0.125 1
vt 0.125 0.8125
vt 0.25 0.8125
vt 0.25 1
vt 0 0.8125
vt 0.125 1
vt 0 1
vt 0 0.8125
vt 0.125 0.8125
vt 0.125 1
vt 0.375 0.8125
vt 0.5 1
vt 0.375 1
vt 0.375 0.8125
vt 0.5 0.8125
vt 0.5 1
vt 0.25 0.8125
vt 0.375 1
vt 0.25 1
vt 0.25 0.8125
vt 0.375 0.8125
vt 0.375 1
vt 0.125 0.8125
vt 0.25 1
vt 0.125 1
vt 0.125 0.8125
vt 0.25 0.8125
vt 0.25 1
vt 0 0.8125
vt 0.125 1
vt 0 1
vt 0 0.8125
vt 0.125 0.8125
vt 0.125 1
vn 0.1543033499620919 0.6172133998483676 0.7715167498104595
vn 0.1543033499620919 0.6172133998483676 0.7715167498104595
vn 0.1543033499620919 0.6172133998483676 0.7715167498104595
vn 0.8320502943378443 0.5547001962252284 1.8475227888400265e-16
vn 0.8320502943378443 0.5547001962252284 1.8475227888400265e-16
vn 0.8320502943378443 0.5547001962252284 1.8475227888400265e-16
vn 0 0 0
vn 0 0 0
vn 0 0 0
vn 0 0.5547001962252284 0.832050294337844
vn 0 0.5547001962252284 0.832050294337844
vn 0 0.5547001962252284 0.832050294337844
vn 0 0 0
vn 0 0 0
vn 0 0 0
vn 0 0.5547001962252284 -0.832050294337844
vn 0 0.5547001962252284 -0.832050294337844
vn 0 0.5547001962252284 -0.832050294337844
vn 0 -0.5547001962252291 0.8320502943378437
vn 0 -0.5547001962252291 0.8320502943378437
vn 0 -0.5547001962252291 0.8320502943378437
vn -0.8320502943378436 0.5547001962252291 1.847522788840025e-16
vn -0.8320502943378436 0.5547001962252291 1.847522788840025e-16
vn -0.8320502943378436 0.5547001962252291 1.847522788840025e-16
vn 1 0 2.220446049250313e-16
vn 1 0 2.220446049250313e-16
vn 1 0 2.220446049250313e-16
vn 1 0 2.220446049250313e-16
vn 1 0 2.220446049250313e-16
vn 1 0 2.220446049250313e-16
vn 0 0 1
vn 0 0 1
vn 0 0 1
vn 0 0 1
vn 0 0 1
vn 0 0 1
vn -1 0 2.220446049250313e-16
vn -1 0 2.220446049250313e-16
vn -1 0 2.220446049250313e-16
vn -1 0 2.220446049250313e-16
vn -1 0 2.220446049250313e-16
vn -1 0 2.220446049250313e-16
vn 0 0 -1
vn 0 0 -1
vn 0 0 -1
vn 0 0 -1
vn 0 0 -1
vn 0 0 -1
vn -1 0 2.220446049250313e-16
vn -1 0 2.220446049250313e-16
vn -1 0 2.220446049250313e-16
vn -1 0 2.220446049250313e-16
vn -1 0 2.220446049250313e-16
vn -1 0 2.220446049250313e-16
vn 0 0 -1
vn 0 0 -1
vn 0 0 -1
vn 0 0 -1
vn 0 0 -1
vn 0 0 -1
vn 1 0 2.220446049250313e-16
vn 1 0 2.220446049250313e-16
vn 1 0 2.220446049250313e-16
vn 1 0 2.220446049250313e-16
vn 1 0 2.220446049250313e-16
vn 1 0 2.220446049250313e-16
vn 0 0 1
vn 0 0 1
vn 0 0 1
vn 0 0 1
vn 0 0 1
vn 0 0 1
g Scene
f 1/1/1 3/2/2 2/3/3
f 1/4/4 4/5/5 3/6/6
f 5/7/7 7/8/8 6/9/9
f 5/10/10 8/11/11 7/12/12
f 9/13/13 11/14/14 10/15/15
f 9/16/16 12/17/17 11/18/18
f 13/19/19 15/20/20 14/21/21
f 13/22/22 16/23/23 15/24/24
f 17/25/25 19/26/26 18/27/27
f 17/28/28 20/29/29 19/30/30
f 21/31/31 23/32/32 22/33/33
f 21/34/34 24/35/35 23/36/36
f 25/37/37 27/38/38 26/39/39
f 25/40/40 28/41/41 27/42/42
f 29/43/43 31/44/44 30/45/45
f 29/46/46 32/47/47 31/48/48
f 33/49/49 35/50/50 34/51/51
f 33/52/52 36/53/53 35/54/54
f 37/55/55 39/56/56 38/57/57
f 37/58/58 40/59/59 39/60/60
f 41/61/61 43/62/62 42/63/63
f 41/64/64 44/65/65 43/66/66
f 45/67/67 47/68/68 46/69/69
f 45/70/70 48/71/71 47/72/72
